<svg xmlns="http://www.w3.org/2000/svg" viewBox="0 0 1024 1024">
  <defs>
    <linearGradient id="body" x1="0" y1="0" x2="0.35" y2="1">
      <stop offset="0" stop-color="#16202A"/>
      <stop offset="0.55" stop-color="#0E1518"/>
      <stop offset="1" stop-color="#0A0D10"/>
    </linearGradient>
    <linearGradient id="mark" x1="0.12" y1="0.05" x2="0.9" y2="1">
      <stop offset="0" stop-color="#5BE6B4"/>
      <stop offset="0.5" stop-color="#36D399"/>
      <stop offset="1" stop-color="#E7C16A"/>
    </linearGradient>
    <radialGradient id="auroraEmerald" cx="0.32" cy="0.72" r="0.6">
      <stop offset="0" stop-color="#36D399" stop-opacity="0.30"/>
      <stop offset="1" stop-color="#36D399" stop-opacity="0"/>
    </radialGradient>
    <radialGradient id="auroraGold" cx="0.78" cy="0.22" r="0.55">
      <stop offset="0" stop-color="#E7C16A" stop-opacity="0.20"/>
      <stop offset="1" stop-color="#E7C16A" stop-opacity="0"/>
    </radialGradient>
    <linearGradient id="edge" x1="0" y1="0" x2="0" y2="1">
      <stop offset="0" stop-color="#F6F2EA" stop-opacity="0.42"/>
      <stop offset="0.12" stop-color="#F6F2EA" stop-opacity="0.06"/>
      <stop offset="0.5" stop-color="#F6F2EA" stop-opacity="0"/>
    </linearGradient>
    <radialGradient id="markGlow" cx="0.5" cy="0.5" r="0.5">
      <stop offset="0" stop-color="#36D399" stop-opacity="0.45"/>
      <stop offset="1" stop-color="#36D399" stop-opacity="0"/>
    </radialGradient>
    <filter id="softShadow" x="-20%" y="-20%" width="140%" height="140%">
      <feDropShadow dx="0" dy="16" stdDeviation="26" flood-color="#000000" flood-opacity="0.45"/>
    </filter>
    <filter id="badgeShadow" x="-20%" y="-40%" width="140%" height="180%">
      <feDropShadow dx="0" dy="8" stdDeviation="12" flood-color="#000000" flood-opacity="0.5"/>
    </filter>
    <clipPath id="bodyClip">
      <rect x="100" y="100" width="824" height="824" rx="185" ry="185"/>
    </clipPath>
  </defs>
  <g filter="url(#softShadow)">
    <rect x="100" y="100" width="824" height="824" rx="185" ry="185" fill="url(#body)"/>
  </g>
  <g clip-path="url(#bodyClip)">
    <rect x="100" y="100" width="824" height="824" fill="url(#auroraEmerald)"/>
    <rect x="100" y="100" width="824" height="824" fill="url(#auroraGold)"/>
    <circle cx="512" cy="540" r="300" fill="url(#markGlow)"/>
    <path d="M 268 300 L 512 792 L 756 300 L 656 300 L 512 596 L 368 300 Z"
          fill="url(#mark)" stroke="#7CF0CC" stroke-width="3"
          stroke-opacity="0.5" stroke-linejoin="round"/>
    <circle cx="512" cy="444" r="60" fill="#0A0D10"/>
    <circle cx="512" cy="444" r="60" fill="none" stroke="#E7C16A" stroke-width="6" stroke-opacity="0.85"/>
    <circle cx="512" cy="444" r="26" fill="#5BE6B4"/>
    <circle cx="512" cy="444" r="26" fill="url(#markGlow)"/>
    <g filter="url(#badgeShadow)">
      <rect x="260" y="736" width="504" height="116" rx="58" fill="#E7C16A"/>
      <rect x="263" y="739" width="498" height="110" rx="55" fill="none" stroke="#F6F2EA" stroke-opacity="0.55" stroke-width="5"/>
      <text x="512" y="815" text-anchor="middle" fill="#0A0D10"
            font-family="-apple-system, BlinkMacSystemFont, 'Segoe UI', sans-serif"
            font-size="66" font-weight="800" letter-spacing="9">DEMO</text>
    </g>
  </g>
  <rect x="100" y="100" width="824" height="824" rx="185" ry="185" fill="url(#edge)"/>
  <rect x="100.5" y="100.5" width="823" height="823" rx="184.5" ry="184.5"
        fill="none" stroke="#F6F2EA" stroke-opacity="0.10" stroke-width="1.5"/>
</svg>
